<svg xmlns="http://www.w3.org/2000/svg" width="101.789" height="136.223" viewBox="0 0 101.789 136.223">
  <g id="noun_Check_320478" transform="translate(-29.509 -22.575)">
    <g id="Group_49" data-name="Group 49" transform="translate(29.509 22.575)">
      <path id="Path_5" data-name="Path 5" d="M117.285,31.938Q98.187,61.7,87.771,77.573,81.57,87,66.689,109.2,53.3,129.16,46.848,139.7q-2.728-11.161-3.72-16.741a81.19,81.19,0,0,1-1.116-16.741l-.992-.992a3.875,3.875,0,0,0-2.232-.372q-6.572,0-8.557,8.061a25.514,25.514,0,0,0-.62,8.309,58.994,58.994,0,0,0,1.24,7.937,69.811,69.811,0,0,1,1.116,7.937q0,.5,1.488,11.161Q37.175,158.8,48.708,158.8q11.037,0,47.743-62,12.773-21.578,24.306-43.4Q131.3,33.55,131.3,31.938,131.3,13.212,117.285,31.938Z" transform="translate(-29.509 -22.575)" fill="#5e59f8"/>
    </g>
  </g>
</svg>
