<svg xmlns="http://www.w3.org/2000/svg" width="19.8" height="23.942" viewBox="0 0 19.8 23.942">
  <g id="noun_Cross_320479" transform="translate(-28.6 -24.147)">
    <g id="Group_47" data-name="Group 47" transform="translate(28.6 24.147)">
      <path id="Path_4" data-name="Path 4" d="M40.142,34.858q1.249-1.226,3.285-3.192Q48.4,26.623,48.4,25.559q0-2.5-3.1-.578a37.019,37.019,0,0,0-6.8,6.014q-.393.416-.786.856a29.8,29.8,0,0,0-5.066-5.042q-2.637-1.874-2.637.625,0,.416,3.354,4.51,1.157,1.434,2.036,2.521-2.036,2.406-3.7,4.788-3.1,4.418-3.1,6.2,0,.046.231,1.18.393,1.11,1.157,1.11,1.55-2.151,3.308-4.6,3.03-4.21,4.395-5.806l.416.555q0,.023,3.608,5.945,2.591,4.256,3.377,4.256A1.781,1.781,0,0,0,46.5,47.51a1.537,1.537,0,0,0,.393-1.018q0-1.48-2.637-5.713Q42.409,37.818,40.142,34.858Z" transform="translate(-28.6 -24.147)"/>
    </g>
  </g>
</svg>
