<svg xmlns="http://www.w3.org/2000/svg" width="41" height="41" viewBox="0 0 41 41"><g><g><g><path fill="#4caf50" d="M20.25 0C9.067 0 .003 9.07.005 20.251c.001 3.872 1.112 7.663 3.202 10.923L.057 39.35a.844.844 0 0 0 1.071 1.098l8.437-3.012c9.492 5.913 21.98 3.01 27.892-6.483 5.912-9.492 3.01-21.98-6.483-27.892A20.248 20.248 0 0 0 20.25 0z"/></g><g><path fill="#fafafa" d="M29.903 23.709s-2.067-1.013-3.361-1.688c-1.465-.754-3.186.658-3.996 1.462a10.153 10.153 0 0 1-3.386-2.15 10.145 10.145 0 0 1-2.15-3.387c.803-.811 2.212-2.53 1.461-3.996a281.68 281.68 0 0 1-1.687-3.362.844.844 0 0 0-.753-.465h-1.687a5.084 5.084 0 0 0-4.219 5.063c0 2.649 3.17 7.738 5.309 9.878 2.138 2.14 7.227 5.308 9.878 5.308a5.084 5.084 0 0 0 5.062-4.218v-1.688a.844.844 0 0 0-.471-.757z"/></g></g></g></svg>