<svg id="noun_Purchase_2767487" xmlns="http://www.w3.org/2000/svg" width="30.324" height="29.973" viewBox="0 0 30.324 29.973">
  <path id="Path_6" data-name="Path 6" d="M28.13,80.259a2.818,2.818,0,1,0,2.818,2.818,2.818,2.818,0,0,0-2.818-2.818Zm0,3.816a1,1,0,1,1,1-1,1,1,0,0,1-1,1Z" transform="translate(-17.636 -56.097)" fill="#fff"/>
  <path id="Path_7" data-name="Path 7" d="M45.82,30.757,42.193,27.13l1.286-1.286,2.341,2.341,4.323-4.323,1.287,1.286Z" transform="translate(-29.398 -16.801)" fill="#fff"/>
  <path id="Path_8" data-name="Path 8" d="M30.324,3.228,28.332,13.581a6.791,6.791,0,0,1-6.6,5.155H6.832l.045.625a2.508,2.508,0,0,0,2.487,2.286H26.139v1.819H9.364a4.342,4.342,0,0,1-4.3-3.966L4.121,6.23A4.15,4.15,0,0,0,0,2.4V.578A5.974,5.974,0,0,1,5.934,6.1L6.7,16.916H21.73a4.971,4.971,0,0,0,4.831-3.754l1.559-8.115H7.626a7.664,7.664,0,0,0-.6-1.819Z" transform="translate(0 -0.578)" fill="#fff"/>
  <path id="Path_9" data-name="Path 9" d="M65.15,80.837a2.818,2.818,0,1,0,2.818,2.818A2.818,2.818,0,0,0,65.15,80.837Zm0,3.816a1,1,0,1,1,1-1,1,1,0,0,1-1,1Z" transform="translate(-43.431 -56.499)" fill="#fff"/>
</svg>
